<svg width="512" height="512" viewBox="0 0 512 512" xmlns="http://www.w3.org/2000/svg">
  <rect width="512" height="512" fill="#FFFFFF"/>
  <g fill="#4ade80" transform="translate(256,256)">
    <path d="M-45 0h-18c-9.4 0-17-7.6-17-17v-100c0-9.4 7.6-17 17-17h18c9.4 0 17 7.6 17 17v100c0 9.4-7.6 17-17 17z"/>
    <path d="M-84 0h-50c-28.8 0-52 23.2-52 52v82c0 28.8 23.2 52 52 52h50c28.8 0 52-23.2 52-52v-82c0-28.8-23.2-52-52-52zM-84 70c-9.7 0-18 7.3-18 16v26h72v-26c0-8.7-8.3-16-18-16zm0 68v20h-84v-20c0-7.7 6.3-14 14-14h56c7.7 0 14 6.3 14 14zm75-148c-40.9 0-74 33.1-74 74v42c0 40.9 33.1 74 74 74h75c40.9 0 74-33.1 74-74v-42c0-40.9-33.1-74-74-74h-75z"/>
  </g>
</svg>